# xmcd
#
# Track frame offsets:
#	150
#	13141
#	30476
#	43410
#	65641
#	74971
#	84441
#	102954
#	111585
#	135994
#	151837
#	167534
#
# Disc length: 2427 seconds
#
# Revision: 1
# Processed by: cddbd v1.4PL0 Copyright (c) Steve Scherf et al.
# Submitted via: audiograbber 1.80.04
#
DISCID=a509790c
DTITLE=Cash Money - Halos Of Smoke And Fire
DYEAR=1998
DGENRE=Blues
TTITLE0=Pie And Gas
TTITLE1=Bad Case Of Bitter Pills
TTITLE2=El Toro
TTITLE3=Do It Again
TTITLE4=Ashes To The Wind
TTITLE5=Midnight Snakes
TTITLE6=Drowning Boat
TTITLE7=Hey Blackbird
TTITLE8=Mask Of Amontiago
TTITLE9=Run Like Hell
TTITLE10=Flight Of The Greyhound Ghost
TTITLE11=Evangeline
EXTD=
EXTT0=
EXTT1=
EXTT2=
EXTT3=
EXTT4=
EXTT5=
EXTT6=
EXTT7=
EXTT8=
EXTT9=
EXTT10=
EXTT11=
PLAYORDER=
